<?xml version="1.0" standalone="no"?>
<svg xmlns:xlink="http://www.w3.org/1999/xlink" id="wave" style="transform:rotate(0deg); transition: 0.3s" viewBox="0 0 1440 260" version="1.1" xmlns="http://www.w3.org/2000/svg"><defs><linearGradient id="sw-gradient-0" x1="0" x2="0" y1="1" y2="0"><stop stop-color="rgba(255, 185, 0, 1)" offset="0%"/><stop stop-color="rgba(255, 114.405, 17.356, 1)" offset="100%"/></linearGradient></defs><path style="transform:translate(0, 0px); opacity:1" fill="url(#sw-gradient-0)" d="M0,234L60,221C120,208,240,182,360,156C480,130,600,104,720,117C840,130,960,182,1080,186.3C1200,191,1320,147,1440,117C1560,87,1680,69,1800,52C1920,35,2040,17,2160,8.7C2280,0,2400,0,2520,39C2640,78,2760,156,2880,195C3000,234,3120,234,3240,216.7C3360,199,3480,165,3600,134.3C3720,104,3840,78,3960,56.3C4080,35,4200,17,4320,43.3C4440,69,4560,139,4680,160.3C4800,182,4920,156,5040,143C5160,130,5280,130,5400,108.3C5520,87,5640,43,5760,43.3C5880,43,6000,87,6120,104C6240,121,6360,113,6480,121.3C6600,130,6720,156,6840,173.3C6960,191,7080,199,7200,177.7C7320,156,7440,104,7560,99.7C7680,95,7800,139,7920,147.3C8040,156,8160,130,8280,117C8400,104,8520,104,8580,104L8640,104L8640,260L8580,260C8520,260,8400,260,8280,260C8160,260,8040,260,7920,260C7800,260,7680,260,7560,260C7440,260,7320,260,7200,260C7080,260,6960,260,6840,260C6720,260,6600,260,6480,260C6360,260,6240,260,6120,260C6000,260,5880,260,5760,260C5640,260,5520,260,5400,260C5280,260,5160,260,5040,260C4920,260,4800,260,4680,260C4560,260,4440,260,4320,260C4200,260,4080,260,3960,260C3840,260,3720,260,3600,260C3480,260,3360,260,3240,260C3120,260,3000,260,2880,260C2760,260,2640,260,2520,260C2400,260,2280,260,2160,260C2040,260,1920,260,1800,260C1680,260,1560,260,1440,260C1320,260,1200,260,1080,260C960,260,840,260,720,260C600,260,480,260,360,260C240,260,120,260,60,260L0,260Z"/></svg>